PathFileType	4	(x/y/z)	S06_M20_T18
DataRate	CameraRate	NumFrames	NumMarkers	Units	OrigDataRate	OrigDataStartFrame	OrigNumFrames
240	240	10	51	mm	240	301	481
Frame#	Time	Sternum			R.Acromium			L.Acromium			Top.Head			R.ASIS			L.ASIS			R.PSIS			L.PSIS			R.Great.Tro			L.Great.Tro			R.Iliac.Crest			L.Iliac.Crest			V.Sacral			R.Thigh.Upper.Post			R.Thigh.Lower.Ant			R.Thigh.Lower.Post			R.Thigh.Upper.Ant			R.Knee.Lat			R.Knee.Med			R.Shank.Upper.Post			R.Shank.Lower.Ant			R.Shank.Lower.Post			R.Shank.Upper.Ant			R.Ankle.Lat			R.Ankle.Med			R.Heel.Upper			R.Heel.Med			R.Heel.Lat			R.Toe.Lat			R.Toe.Med			R.Toe.Tip			L.Thigh.Upper.Post			L.Thigh.Lower.Ant			L.Thigh.Lower.Post			L.Thigh.Upper.Ant			L.Knee.Lat			L.Knee.Med			L.Shank.Upper.Post			L.Shank.Lower.Ant			L.Shank.Lower.Post			L.Shank.Upper.Ant			L.Ankle.Lat			L.Ankle.Med			L.Heel.Upper			L.Heel.Med			L.Heel.Lat			L.Toe.Lat			L.Toe.Med			L.Toe.Tip			Cervical.Spine			Back			
		X1	Y1	Z1	X2	Y2	Z2	X3	Y3	Z3	X4	Y4	Z4	X5	Y5	Z5	X6	Y6	Z6	X7	Y7	Z7	X8	Y8	Z8	X9	Y9	Z9	X10	Y10	Z10	X11	Y11	Z11	X12	Y12	Z12	X13	Y13	Z13	X14	Y14	Z14	X15	Y15	Z15	X16	Y16	Z16	X17	Y17	Z17	X18	Y18	Z18	X19	Y19	Z19	X20	Y20	Z20	X21	Y21	Z21	X22	Y22	Z22	X23	Y23	Z23	X24	Y24	Z24	X25	Y25	Z25	X26	Y26	Z26	X27	Y27	Z27	X28	Y28	Z28	X29	Y29	Z29	X30	Y30	Z30	X31	Y31	Z31	X32	Y32	Z32	X33	Y33	Z33	X34	Y34	Z34	X35	Y35	Z35	X36	Y36	Z36	X37	Y37	Z37	X38	Y38	Z38	X39	Y39	Z39	X40	Y40	Z40	X41	Y41	Z41	X42	Y42	Z42	X43	Y43	Z43	X44	Y44	Z44	X45	Y45	Z45	X46	Y46	Z46	X47	Y47	Z47	X48	Y48	Z48	X49	Y49	Z49	X50	Y50	Z50	X51	Y51	Z51	

301	1.25	55.436	1259.6	298.34	-62.061	1468.7	467.57	-92.839	1462.5	117.62	-9.9318	1780.7	281.68	9.7661	1028.1	438.96	29.508	1018.8	183.91	NaN	NaN	NaN	-177.87	1041.4	249.96	-68.274	961.34	483.08	-55.118	940.83	126.26	-78.268	1103.1	460.44	-45.182	1086.8	139.49	-193.77	1008.5	295.04	-152.68	729.09	459.86	-124.82	635.66	426.4	-191.34	652.11	434.77	-82.267	713.67	448.24	-218.37	539.28	414.94	-199.96	546.36	288.27	-355.79	349.36	396.49	-327.35	267.01	372.6	-390.64	283.25	375.97	-292.78	333.11	392.77	-418.59	151.01	342.3	-398.97	154.76	259.26	-491.52	133.04	290.83	-492.04	100.81	261.16	-494.73	101.82	325.85	-332.32	39.873	374.14	-302.11	40.425	252.89	-238.16	41.916	302.28	86.519	709.88	153.08	156.39	657.62	220.33	100.1	622.43	176.87	133.38	746.66	194.55	122.07	536.96	195.11	143.09	555.06	315.75	174.92	309.86	208.71	259.98	282.55	207.17	202.68	243.63	226.91	229.69	346.01	195.79	314.52	134.52	224.1	314.4	168.13	312.22	281.45	52.995	276.53	305.65	40.042	311.75	306.66	34.393	250.04	442.36	146.51	200.31	447.57	180.46	312.98	487.24	235.32	252.25	-127.69	1519.8	295.36	-186.51	1244.9	300.05
302	1.2542	61.503	1259.4	298.12	-56.267	1468.5	467.22	-86.841	1462.1	117.24	-4.1331	1780.4	281.33	15.907	1027.8	438.84	35.809	1018.5	183.79	NaN	NaN	NaN	-171.62	1041.1	249.73	-62.291	961.12	482.94	-48.983	940.47	126.29	-72.154	1102.8	460.28	-38.916	1086.4	139.33	-187.57	1008.2	294.84	-147.04	728.99	459.98	-119.26	635.47	426.65	-185.76	652.02	434.92	-76.624	713.44	448.48	-213.01	539.22	415.17	-194.25	546.14	288.52	-352.13	350.51	396.77	-324.42	267.85	372.86	-387.62	284.72	376.21	-289.35	333.63	392.92	-416.85	152.8	342.61	-396.87	156.26	259.57	-489.73	135.7	291.05	-490.65	103.6	261.26	-493.4	104.42	325.97	-331.94	40.001	374.18	-301.76	40.555	252.92	-238	41.838	302.28	92.389	709.41	153.38	162.18	657.02	220.6	105.78	621.94	177.19	139.37	746.09	194.79	127.58	536.42	195.32	148.44	554.49	315.93	179.34	308.98	208.85	264.26	281.29	207.66	206.7	242.63	227.1	234.33	344.9	196.21	318.09	133.14	224.59	317.78	166.58	312.77	284.58	52.038	276.82	308.6	38.877	312.01	309.67	33.406	250.26	445.86	144.97	201.11	450.77	178.67	313.86	490.69	233.57	253.35	-121.83	1519.5	294.95	-180.43	1244.5	299.71
303	1.2583	67.601	1259.2	297.89	-50.458	1468.3	466.86	-80.811	1461.7	116.84	1.6706	1780.2	280.98	22.096	1027.6	438.72	42.157	1018.3	183.68	NaN	NaN	NaN	-165.33	1040.8	249.51	-56.252	960.92	482.79	-42.787	940.16	126.31	-65.991	1102.6	460.12	-32.611	1086.1	139.17	-181.31	1008	294.65	-141.29	728.89	460.12	-113.56	635.29	426.93	-180.06	651.93	435.1	-70.877	713.23	448.75	-207.5	539.15	415.42	-188.38	545.9	288.81	-348.36	351.7	397.09	-321.39	268.72	373.15	-384.48	286.22	376.47	-285.79	334.17	393.11	-414.99	154.65	342.93	-394.65	157.81	259.91	-487.81	138.47	291.29	-489.14	106.51	261.37	-491.97	107.11	326.11	-331.54	40.135	374.22	-301.4	40.693	252.96	-237.84	41.766	302.28	98.347	709.01	153.68	168.02	656.44	220.86	111.52	621.51	177.46	145.46	745.56	195.04	133.11	535.9	195.51	153.83	553.92	316.06	183.62	308.11	208.99	268.39	279.97	208.12	210.56	241.62	227.29	238.85	343.75	196.62	321.41	131.71	225.06	320.97	164.94	313.31	287.38	51.15	277.12	311.2	37.736	312.25	312.3	32.453	250.47	449.11	143.22	201.87	453.79	176.65	314.71	494.01	231.55	254.4	-115.95	1519.2	294.53	-174.31	1244.1	299.38
304	1.2625	73.731	1259.1	297.67	-44.634	1468.1	466.49	-74.749	1461.4	116.43	7.4789	1780.1	280.61	28.332	1027.4	438.59	48.553	1018.1	183.56	NaN	NaN	NaN	-159	1040.5	249.29	-50.157	960.74	482.65	-36.526	939.9	126.31	-59.782	1102.4	459.96	-26.268	1085.8	139.02	-175.01	1007.8	294.47	-135.44	728.8	460.26	-107.74	635.12	427.24	-174.24	651.82	435.3	-65.024	713.03	449.03	-201.83	539.06	415.71	-182.34	545.63	289.13	-344.46	352.92	397.42	-318.24	269.63	373.47	-381.22	287.77	376.75	-282.09	334.73	393.34	-413.01	156.55	343.28	-392.32	159.4	260.28	-485.76	141.34	291.54	-487.52	109.52	261.48	-490.43	109.9	326.25	-331.12	40.276	374.26	-301.01	40.839	253.01	-237.68	41.698	302.27	104.38	708.67	153.98	173.91	655.88	221.11	117.31	621.12	177.71	151.64	745.06	195.31	138.62	535.39	195.67	159.25	553.36	316.16	187.78	307.24	209.12	272.38	278.62	208.57	214.27	240.6	227.48	243.26	342.57	197	324.52	130.23	225.52	323.99	163.26	313.83	289.89	50.354	277.43	313.49	36.641	312.49	314.57	31.555	250.68	452.14	141.29	202.59	456.67	174.41	315.51	497.23	229.28	255.4	-110.05	1518.9	294.09	-168.15	1243.8	299.05
305	1.2667	79.892	1259	297.45	-38.794	1468	466.12	-68.653	1461.1	116.02	13.292	1779.9	280.23	34.615	1027.2	438.46	54.994	1017.9	183.45	NaN	NaN	NaN	-152.63	1040.2	249.08	-44.006	960.59	482.49	-30.195	939.7	126.29	-53.529	1102.3	459.82	-19.884	1085.6	138.87	-168.66	1007.6	294.29	-129.49	728.7	460.43	-101.78	634.95	427.58	-168.28	651.69	435.52	-59.061	712.86	449.35	-196.01	538.96	416.03	-176.13	545.32	289.49	-340.42	354.17	397.77	-314.97	270.57	373.83	-377.83	289.36	377.05	-278.26	335.32	393.61	-410.91	158.51	343.64	-389.88	161.03	260.67	-483.57	144.31	291.81	-485.76	112.64	261.61	-488.77	112.8	326.39	-330.69	40.427	374.31	-300.6	40.996	253.07	-237.51	41.635	302.27	110.48	708.38	154.26	179.83	655.32	221.34	123.13	620.78	177.92	157.88	744.58	195.57	144.12	534.89	195.8	164.67	552.79	316.23	191.85	306.39	209.25	276.27	277.25	209	217.86	239.59	227.66	247.58	341.39	197.36	327.46	128.73	225.97	326.89	161.54	314.33	292.15	49.67	277.74	315.5	35.613	312.73	316.53	30.731	250.88	454.98	139.22	203.27	459.42	172	316.28	500.37	226.79	256.35	-104.13	1518.7	293.64	-161.96	1243.5	298.71
306	1.2708	86.084	1259	297.23	-32.94	1467.9	465.73	-62.524	1460.9	115.59	19.109	1779.9	279.85	40.942	1027.1	438.33	61.48	1017.8	183.33	NaN	NaN	NaN	-146.22	1040	248.87	-37.799	960.47	482.33	-23.791	939.54	126.26	-47.235	1102.2	459.68	-13.46	1085.4	138.73	-162.26	1007.4	294.12	-123.43	728.6	460.6	-95.682	634.79	427.94	-162.19	651.55	435.76	-52.985	712.71	449.68	-190.02	538.85	416.39	-169.72	544.99	289.9	-336.25	355.46	398.14	-311.57	271.55	374.22	-374.31	291	377.36	-274.29	335.92	393.93	-408.66	160.52	344.03	-387.3	162.71	261.1	-481.22	147.39	292.1	-483.86	115.88	261.75	-486.98	115.81	326.56	-330.24	40.588	374.36	-300.16	41.165	253.13	-237.34	41.576	302.26	116.62	708.13	154.53	185.77	654.77	221.56	128.95	620.47	178.1	164.18	744.11	195.83	149.6	534.41	195.9	170.08	552.23	316.27	195.84	305.55	209.37	280.06	275.88	209.42	221.36	238.59	227.84	251.84	340.21	197.71	330.26	127.23	226.41	329.68	159.81	314.82	294.2	49.112	278.06	317.27	34.668	312.96	318.22	29.997	251.08	457.65	137.01	203.9	462.09	169.44	317.01	503.47	224.1	257.26	-98.192	1518.5	293.18	-155.73	1243.2	298.38
307	1.275	92.305	1259	297.02	-27.072	1467.9	465.34	-56.362	1460.7	115.16	24.93	1779.8	279.45	47.311	1027.1	438.2	68.009	1017.8	183.22	NaN	NaN	NaN	-139.76	1039.8	248.66	-31.537	960.36	482.17	-17.312	939.44	126.2	-40.902	1102.1	459.54	-6.9952	1085.3	138.59	-155.82	1007.3	293.94	-117.26	728.51	460.79	-89.442	634.62	428.35	-155.97	651.4	436.02	-46.793	712.58	450.04	-183.87	538.72	416.78	-163.13	544.61	290.35	-331.92	356.77	398.53	-308.04	272.55	374.64	-370.63	292.67	377.7	-270.16	336.54	394.3	-406.27	162.58	344.44	-384.6	164.44	261.56	-478.7	150.58	292.42	-481.82	119.24	261.9	-485.05	118.93	326.73	-329.76	40.763	374.41	-299.7	41.35	253.2	-237.16	41.521	302.24	122.79	707.92	154.79	191.71	654.22	221.75	134.77	620.2	178.24	170.53	743.65	196.08	155.03	533.93	195.98	175.47	551.66	316.29	199.77	304.74	209.48	283.79	274.52	209.83	224.79	237.62	228.02	256.03	339.05	198.04	332.94	125.74	226.84	332.39	158.1	315.28	296.08	48.693	278.39	318.84	33.819	313.18	319.68	29.366	251.28	460.19	134.69	204.51	464.69	166.74	317.7	506.54	221.24	258.11	-92.231	1518.3	292.71	-149.47	1243	298.05
308	1.2792	98.555	1259	296.82	-21.19	1467.9	464.94	-50.167	1460.5	114.72	30.757	1779.8	279.04	53.72	1027	438.06	74.579	1017.8	183.11	NaN	NaN	NaN	-133.28	1039.7	248.44	-25.22	960.28	482	-10.758	939.4	126.11	-34.534	1102	459.4	-0.48961	1085.2	138.44	-149.33	1007.2	293.76	-110.98	728.4	460.98	-83.057	634.46	428.78	-149.61	651.22	436.31	-40.485	712.46	450.43	-177.54	538.57	417.2	-156.35	544.19	290.85	-327.44	358.12	398.95	-304.37	273.59	375.11	-366.8	294.39	378.05	-265.89	337.18	394.72	-403.73	164.69	344.89	-381.76	166.2	262.06	-476.01	153.87	292.77	-479.61	122.72	262.09	-482.98	122.16	326.93	-329.26	40.955	374.47	-299.2	41.556	253.29	-236.97	41.468	302.23	128.97	707.74	155.02	197.63	653.66	221.91	140.56	619.94	178.35	176.91	743.2	196.31	160.43	533.47	196.04	180.82	551.1	316.29	203.66	303.97	209.58	287.47	273.2	210.22	228.17	236.69	228.18	260.18	337.91	198.35	335.54	124.29	227.26	335.06	156.41	315.74	297.82	48.42	278.71	320.24	33.078	313.4	320.95	28.847	251.47	462.61	132.3	205.08	467.24	163.94	318.36	509.62	218.23	258.93	-86.25	1518.2	292.22	-143.18	1242.9	297.71
309	1.2833	104.83	1259.1	296.62	-15.296	1467.9	464.54	-43.94	1460.4	114.28	36.588	1779.9	278.63	60.165	1027.1	437.93	81.187	1017.8	183	NaN	NaN	NaN	-126.75	1039.6	248.22	-18.85	960.23	481.81	-4.1319	939.41	126	-28.131	1102	459.26	6.0561	1085.1	138.3	-142.81	1007.2	293.57	-104.58	728.3	461.19	-76.524	634.29	429.25	-143.1	651.02	436.62	-34.057	712.37	450.84	-171.05	538.41	417.67	-149.37	543.73	291.4	-322.8	359.49	399.38	-300.56	274.67	375.62	-362.81	296.14	378.42	-261.46	337.85	395.2	-401.02	166.86	345.36	-378.79	168.01	262.61	-473.13	157.28	293.16	-477.24	126.32	262.3	-480.74	125.5	327.16	-328.74	41.168	374.54	-298.66	41.785	253.38	-236.77	41.419	302.2	135.16	707.59	155.22	203.53	653.1	222.05	146.32	619.72	178.42	183.3	742.76	196.51	165.78	533.03	196.07	186.11	550.53	316.27	207.52	303.24	209.66	291.12	271.92	210.59	231.54	235.8	228.32	264.31	336.82	198.65	338.07	122.89	227.66	337.69	154.76	316.17	299.45	48.297	279.04	321.5	32.45	313.62	322.06	28.446	251.65	464.95	129.83	205.62	469.77	161.04	318.99	512.71	215.09	259.71	-80.249	1518.1	291.73	-136.85	1242.7	297.37
310	1.2875	111.13	1259.2	296.42	-9.3912	1468	464.14	-37.684	1460.3	113.83	42.426	1779.9	278.2	66.644	1027.1	437.8	87.829	1018	182.9	NaN	NaN	NaN	-120.2	1039.6	247.99	-12.426	960.19	481.62	2.5627	939.49	125.86	-21.695	1102	459.13	12.641	1085.1	138.16	-136.25	1007.1	293.37	-98.07	728.19	461.41	-69.844	634.12	429.77	-136.45	650.8	436.96	-27.508	712.29	451.27	-164.37	538.24	418.18	-142.19	543.22	292.02	-317.98	360.89	399.84	-296.59	275.77	376.18	-358.66	297.94	378.82	-256.88	338.53	395.73	-398.15	169.07	345.88	-375.67	169.85	263.2	-470.06	160.79	293.6	-474.69	130.04	262.56	-478.34	128.96	327.43	-328.19	41.405	374.61	-298.09	42.045	253.48	-236.57	41.371	302.18	141.33	707.46	155.39	209.38	652.54	222.16	152.03	619.51	178.46	189.68	742.32	196.68	171.07	532.62	196.07	191.33	549.98	316.25	211.38	302.56	209.72	294.77	270.7	210.96	234.89	234.96	228.45	268.42	335.79	198.93	340.57	121.54	228.05	340.31	153.17	316.6	301.01	48.323	279.36	322.64	31.94	313.83	323.04	28.165	251.84	467.22	127.32	206.14	472.29	158.07	319.6	515.82	211.83	260.46	-74.231	1518.1	291.22	-130.5	1242.6	297.03
